<?xml version='1.0' encoding='utf-8'?>
<svg xmlns="http://www.w3.org/2000/svg" xmlns:ns1="http://sodipodi.sourceforge.net/DTD/sodipodi-0.dtd" xmlns:ns2="http://www.inkscape.org/namespaces/inkscape" width="81.13537292576419" height="100" viewBox="0.0 0.0 92.900002 114.5" version="1.1" id="svg1" ns1:docname="Egyptian Hieroglyph R025 in Noto Sans Egyptian Hieroglyphs font.svg">
  <defs id="defs1" />
  <ns1:namedview id="namedview1" pagecolor="#ffffff" bordercolor="#000000" borderopacity="0.25" ns2:showpageshadow="2" ns2:pageopacity="0.0" ns2:pagecheckerboard="0" ns2:deskcolor="#d1d1d1" />
  <path d="m 4.9,114.5 q -0.6,0 -1.2,0 -0.6,0 -1.3,-0.1 -2.4,-0.3 -2.4,-2.6 0,-1.3 0.9,-2 1,-0.7 1.7,-0.7 8.6,0 13.5,-3.3 5,-3.3 6.4,-11.099999 h -0.2 q -5.3,0 -7.1,-2.3 -1.8,-2.3 -1.8,-7.2 V 29.2 q 0,-5 1.8,-7.2 1.8,-2.3 7.1,-2.3 h 0.2 Q 21.1,11.9 16.1,8.6 11.2,5.3 2.6,5.3 1.9,5.3 0.9,4.7 0,4 0,2.7 0,1.6 0.6,0.9 1.3,0.2 2.4,0.1 3.1,0 3.7,0 4.3,0 4.9,0 11.5,0 16.7,2.3 22,4.6 25.3,9 q 3.4,4.3 4.1,10.7 h 34.099999 q 0.7,-6.4 4,-10.7 3.3,-4.4 8.6,-6.7 5.3,-2.3 11.8,-2.3 0.7,0 1.3,0 0.6,0 1.2,0.1 1.1,0.1 1.8,0.8 0.7,0.7 0.7,1.8 0,1.3 -1,2 -0.9,0.6 -1.7,0.6 -8.6,0 -13.6,3.3 -4.9,3.3 -6.3,11.1 h 0.2 q 5.3,0 7.1,2.3 1.8,2.2 1.8,7.2 v 56.000001 q 0,4.9 -1.8,7.2 -1.8,2.3 -7.1,2.3 h -0.2 q 1.4,7.799999 6.3,11.099999 5,3.3 13.6,3.3 0.8,0 1.7,0.7 1,0.7 1,2 0,2.3 -2.5,2.6 -0.6,0.1 -1.2,0.1 -0.6,0 -1.3,0 -6.5,0 -11.8,-2.3 -5.3,-2.3 -8.6,-6.8 -3.3,-4.4 -4,-10.699999 H 29.4 Q 28.7,101 25.3,105.4 q -3.3,4.5 -8.6,6.8 -5.2,2.3 -11.8,2.3 z M 24.7,19.7 h 2.5 Q 26.4,13.5 23.1,9.6 19.8,5.7 15.1,3.8 10.4,1.9 5,1.9 4.3,1.9 3.7,1.9 3.1,1.9 2.5,2 1.8,2.2 2,2.7 q 0,0.7 0.6,0.7 9.2,0 14.9,3.9 5.7,3.8 7.2,12.4 z m 40.899999,0 h 2.5 q 1.5,-8.6 7.2,-12.4 5.7,-3.9 14.9,-3.9 0.7,0 0.7,-0.7 0,-0.5 -0.6,-0.7 -0.6,-0.1 -1.2,-0.1 -0.6,0 -1.3,0 -5.3,0 -10.1,1.9 -4.7,1.9 -8,5.8 -3.2,3.9 -4.1,10.1 z M 15.4,44.4 75.299999,22.8 q -1.5,-1.1 -4.8,-1.1 H 22.3 q -4.1,0 -5.5,1.8 -1.4,1.8 -1.4,5.7 z M 20,44.8 H 77.499999 V 29.2 q 0,-3 -0.9,-4.8 z M 15.4,67.500001 72.799999,46.8 H 15.4 Z m 5.3,0.1 H 77.499999 V 47.2 Z m -4.6,22.4 56.699999,-20.4 H 15.4 v 15.6 q 0,3.1 0.7,4.8 z m 6.2,2.8 h 48.199999 q 4.2,0 5.6,-1.8 1.4,-1.8 1.4,-5.8 v -15.2 L 17.5,91.600001 q 1.5,1.2 4.8,1.2 z M 5,112.5 q 5.4,0 10.1,-1.9 4.7,-1.8 8,-5.8 3.3,-3.9 4.1,-10.099999 H 24.7 Q 23.2,103.4 17.5,107.2 q -5.7,3.9 -14.9,3.9 -0.6,0 -0.6,0.7 -0.2,0.6 0.5,0.6 0.6,0.1 1.2,0.1 0.6,0 1.3,0 z m 82.799999,0 q 0.7,0 1.3,0 0.6,0 1.2,-0.1 0.6,0 0.6,-0.6 0,-0.7 -0.7,-0.7 -9.2,0 -14.9,-3.9 -5.7,-3.8 -7.2,-12.499999 h -2.5 q 0.9,6.199999 4.1,10.099999 3.3,4 8,5.8 4.8,1.9 10.1,1.9 z" id="text1" style="font-size:100px;font-family:'Noto Sans Egyptian Hieroglyphs';dominant-baseline:middle;text-anchor:middle" aria-label="𓋌" />
</svg>