<?xml version='1.0' encoding='utf-8'?>
<svg xmlns="http://www.w3.org/2000/svg" xmlns:ns1="http://sodipodi.sourceforge.net/DTD/sodipodi-0.dtd" xmlns:ns2="http://www.inkscape.org/namespaces/inkscape" width="63.07403467666354" height="100" viewBox="-2.15 -2.15 71.6 111" version="1.1" id="svg1" ns1:docname="Egyptian Hieroglyph F005 in Noto Sans Egyptian Hieroglyphs font.svg">
  <defs id="defs1" />
  <ns1:namedview id="namedview1" pagecolor="#ffffff" bordercolor="#000000" borderopacity="0.25" ns2:showpageshadow="2" ns2:pageopacity="0.0" ns2:pagecheckerboard="0" ns2:deskcolor="#d1d1d1" />
  <path fill="currentColor" stroke="currentColor" stroke-width="4.3" stroke-linecap="round" stroke-linejoin="round" d="m 37.299995,106.7 q -0.3,-3.5 -0.7,-7.599999 -0.3,-4 -0.7,-7.9 -0.4,-3.9 -0.7,-6.9 -0.3,-3 -0.6,-4.4 -0.9,-4.9 -2.099995,-8.4 -1.1,-3.6 -2.9,-7 -0.7,0.3 -2,0.6 -1.2,0.3 -2.3,0.4 h -3.1 l -7,4.8 q -0.4,0.2 -1.9,1.2 -1.4,0.9 -2.5,0.9 -0.5,0 -2.1,-0.4 -1.5,-0.5 -3.3,-1.3 -1.8,-0.8 -2.9,-1.6 -1,-0.8 -1.8,-1.9 -0.7,-1.2 -0.7,-3 0,-0.5 1,-2.300001 1,-1.8 2.6,-4.4 1.7,-2.6 3.6,-5.4 1.9,-2.9 3.6,-5.4 0.5,-1.2 1.4,-3.2 1,-2.1 2.6,-4.4 Q 16.5,36.8 19,35 17.5,33.5 16.1,31.7 14.7,29.8 13.8,26.5 12.9,23.2 12.9,17.5 12.9,12 12.2,9.4 11.5,6.7 10.1,5.4 8.7,4.1 6.6,2.8 V 0 q 6.6,1 9.4,4.5 2.8,3.5 3,11.3 0.1,0.8 0.2,3.1 0.2,2.2 0.7,4.8 0.5,2.5 1.3,4.1 0.7,1.2 2.1,2.5 1.4,1.2 2.2,1.8 0.8,-0.1 1.7,-0.2 1,-0.1 2,-0.1 2.7,0 5.199995,0.9 1,-0.7 2.5,-1.9 1.5,-1.2 2.2,-2.3 1,-1.6 1.6,-4 0.7,-2.5 1,-4.8 0.4,-2.3 0.4,-3.1 0.8,-7.7 3.7,-11 3,-3.3 9.7,-3.9 l -0.2,2.7 q -2.1,1.2 -3.6,2.5 -1.5,1.2 -2.4,3.8 -0.8,2.6 -1.2,8.1 -0.3,4 -0.9,6.8 -0.6,2.7 -1.5,4.5 l 7.2,-0.7 q 0.3,3.3 -2.1,6.1 -2.3,2.7 -6.1,4.7 3.5,4 5.9,8.6 2.5,4.5 3.9,7.3 l 12.8,25.500001 q -6.2,2.2 -11.4,6.3 -5.2,4.1 -9.7,9.1 -4.5,4.899999 -8.9,9.699999 z M 20.7,33.9 Q 21.3,33.6 21.9,33.3 22.5,33 23.2,32.8 22.2,32 21.1,30.9 20,29.8 19.5,28.8 18.6,27.1 18.1,24.5 17.6,21.8 17.4,19.4 17.2,16.9 17.1,15.9 16.7,9 14.3,5.7 11.9,2.3 8.4,2 q 2.1,1.4 3.5,2.8 1.4,1.3 2.1,4.1 0.8,2.8 0.8,8.6 0,5.5 0.8,8.6 0.9,3.1 2.3,4.8 1.4,1.6 2.8,3 z m 17.299995,0.5 3.7,-3.8 1.5,-0.2 q 1.1,-1.8 1.9,-4.5 0.8,-2.8 1.1,-7.2 0.4,-5.9 1.3,-8.6 0.9,-2.8 2.4,-4.1 1.6,-1.3 3.7,-2.5 -3.5,0.1 -6.1,3.3 -2.6,3.2 -3.4,10.1 -0.1,1 -0.5,3.4 -0.3,2.4 -1,5 -0.6,2.6 -1.7,4.3 -0.7,1.1 -2,2.2 -1.3,1 -2.3,1.8 0.6,0.4 1.4,0.8 z m 0.9,67.6 q 2.1,-2.399999 5,-5.499999 2.9,-3.1 6.2,-6.2 3.4,-3.2 7.1,-5.8 3.7,-2.6 7.4,-4 L 52.799995,57 q -1.3,-2.8 -3.9,-7.4 -2.5,-4.6 -6,-8.6 -2.2,0.9 -4.3,1.5 l -0.5,-1.9 q 5.8,-1.6 8.9,-4.3 3.1,-2.8 3.7,-4.8 l -8.1,0.9 q -0.5,0.5 -2.4,2.5 -1.9,2 -3.6,3.7 l -1.4,-1.3 1.5,-1.5 Q 33.2,33.8 29.2,33.8 q -4.3,0 -7.3,1.7 -2.9,1.6 -4.8,4 -1.9,2.3 -2.9,4.5 -1,2.2 -1.5,3.4 -1.7,2.5 -3.6,5.3 -1.9,2.7 -3.6,5.2 -1.6,2.4 -2.6,4.200001 -1,1.7 -1,2.1 0,1.3 0.5,2.1 0.5,0.7 1.2,1.2 0.5,0.4 1.2,0.8 0.8,0.4 1.5,0.7 1.4,-0.3 2.5,-0.8 1.2,-0.5 2.2,-1.2 l 1.2,1.6 q -0.7,0.5 -1.4,0.9 -0.7,0.3 -1.5,0.6 0.9,0.4 1.5,0.4 0.5,0 1.5,-0.6 1,-0.6 1.7,-1.2 l 7.7,-5.1 h 3.4 q 2,-0.2 4.3,-1.3 Q 31.7,61.2 33.3,59.9 l 1.399995,1.5 q -0.7,0.5 -1.599995,1.100001 -0.9,0.6 -1.7,1.1 1.9,3.6 3.099995,7.4 1.2,3.8 2,8.5 0.3,1.7 0.7,5.6 0.5,3.9 0.9,8.5 0.5,4.5 0.8,8.399999 z M 22.5,51.4 q 0.2,-1.7 1.1,-2.8 0.9,-1.2 2.8,-1.2 1.8,0 2.2,0.7 0.4,0.7 0.4,1.2 h -0.8 q 0,0.1 -0.5,0.8 -0.5,0.6 -2.1,0.6 -0.5,0 -0.9,-0.2 -0.6,0.3 -0.6,0.9 z M 4.6,66.800001 q 0,-0.5 0.8,-1.8 0.9,-1.3 2.2,-1.3 1.2,0 1.8,0.6 0.7,0.6 0.9,1.3 l -1.9,0.6 q -0.2,-0.6 -0.8,-0.6 -0.4,0 -0.7,0.5 -0.3,0.5 -0.3,0.7 z" id="text1" style="font-size:100px;font-family:'Noto Sans Egyptian Hieroglyphs';dominant-baseline:middle;text-anchor:middle" aria-label="𓄃" />
</svg>