<?xml version="1.0" encoding="UTF-8"?>
<svg xmlns="http://www.w3.org/2000/svg" width="100" height="100" viewBox="0 0 100 100" style="color: #59e052;" data-source="sheet-15" data-row="1" data-column="3">
  <path fill="currentColor" fill-rule="evenodd" d="M 43.2 6.29 L 56.8 6.29 L 56.8 6.94 L 60.04 6.94 L 60.04 7.59 L 62.63 7.59 L 62.63 8.24 L 66.51 8.88 L 66.51 9.53 L 67.81 9.53 L 67.81 10.18 L 69.1 10.18 L 69.1 10.83 L 70.4 10.83 L 70.4 11.47 L 72.99 12.12 L 73.63 13.42 L 74.93 13.42 L 74.93 14.06 L 75.58 14.06 L 75.58 14.71 L 76.22 14.71 L 76.87 16.01 L 78.17 16.01 L 78.17 16.65 L 78.81 16.65 L 78.81 17.3 L 79.46 17.3 L 79.46 17.95 L 80.11 17.95 L 80.11 18.6 L 80.76 18.6 L 80.76 19.24 L 81.4 19.24 L 81.4 19.89 L 82.05 19.89 L 82.05 20.54 L 82.7 20.54 L 82.7 21.19 L 83.99 21.83 L 83.99 23.13 L 84.64 23.13 L 84.64 23.78 L 85.94 24.42 L 85.94 25.72 L 87.23 26.37 L 87.23 27.66 L 87.88 27.66 L 87.88 28.96 L 88.53 28.96 L 88.53 30.25 L 89.17 30.25 L 89.17 31.55 L 89.82 31.55 L 89.82 32.84 L 90.47 32.84 L 90.47 34.14 L 91.12 34.14 L 91.12 36.08 L 91.76 36.08 L 91.76 38.02 L 92.41 38.02 L 92.41 40.61 L 93.06 40.61 L 93.06 44.5 L 93.71 44.5 L 93.71 55.5 L 93.06 55.5 L 93.06 59.39 L 92.41 59.39 L 92.41 61.98 L 91.76 61.98 L 91.12 65.86 L 90.47 65.86 L 90.47 67.16 L 89.82 67.16 L 89.82 68.45 L 89.17 68.45 L 89.17 69.75 L 88.53 69.75 L 88.53 71.04 L 87.88 71.04 L 87.23 73.63 L 85.94 74.28 L 85.94 75.58 L 85.29 75.58 L 85.29 76.22 L 84.64 76.22 L 84.64 76.87 L 83.35 77.52 L 83.35 78.81 L 82.7 78.81 L 82.7 79.46 L 82.05 79.46 L 82.05 80.11 L 81.4 80.11 L 81.4 80.76 L 80.76 80.76 L 80.76 81.4 L 80.11 81.4 L 80.11 82.05 L 79.46 82.05 L 79.46 82.7 L 78.81 82.7 L 78.17 83.99 L 76.87 83.99 L 76.87 84.64 L 76.22 84.64 L 75.58 85.94 L 74.28 85.94 L 74.28 86.58 L 73.63 86.58 L 73.63 87.23 L 72.34 87.23 L 71.69 88.53 L 70.4 88.53 L 70.4 89.17 L 69.1 89.17 L 69.1 89.82 L 67.81 89.82 L 67.81 90.47 L 65.86 90.47 L 65.86 91.12 L 63.92 91.12 L 63.92 91.76 L 61.98 91.76 L 61.98 92.41 L 59.39 92.41 L 59.39 93.06 L 56.15 93.06 L 56.15 93.71 L 43.2 93.71 L 43.2 93.06 L 39.96 93.06 L 39.96 92.41 L 38.02 92.41 L 38.02 91.76 L 36.08 91.76 L 36.08 91.12 L 32.19 90.47 L 32.19 89.82 L 30.9 89.82 L 30.9 89.17 L 29.6 89.17 L 29.6 88.53 L 27.01 87.88 L 26.37 86.58 L 25.07 86.58 L 25.07 85.94 L 24.42 85.94 L 23.78 84.64 L 22.48 84.64 L 22.48 83.99 L 21.83 83.99 L 21.83 83.35 L 21.19 83.35 L 21.19 82.7 L 20.54 82.7 L 20.54 82.05 L 19.89 82.05 L 19.89 81.4 L 19.24 81.4 L 19.24 80.76 L 18.6 80.76 L 18.6 80.11 L 17.95 80.11 L 17.95 79.46 L 17.3 79.46 L 17.3 78.81 L 16.65 78.81 L 16.65 78.17 L 15.36 77.52 L 15.36 76.22 L 14.06 75.58 L 14.06 74.28 L 13.42 74.28 L 13.42 73.63 L 12.77 73.63 L 12.77 72.34 L 11.47 71.69 L 11.47 70.4 L 10.83 70.4 L 10.83 69.1 L 10.18 69.1 L 10.18 67.81 L 9.53 67.81 L 9.53 66.51 L 8.88 66.51 L 8.88 64.57 L 8.24 64.57 L 8.24 62.63 L 7.59 62.63 L 7.59 60.04 L 6.94 60.04 L 6.94 57.45 L 6.29 57.45 L 6.29 42.55 L 6.94 42.55 L 6.94 39.32 L 7.59 39.32 L 7.59 36.73 L 8.24 36.73 L 8.24 34.78 L 8.88 34.78 L 8.88 33.49 L 9.53 33.49 L 9.53 31.55 L 10.18 31.55 L 10.83 28.96 L 12.12 28.31 L 12.77 25.72 L 13.42 25.72 L 13.42 25.07 L 14.71 24.42 L 14.71 23.13 L 15.36 23.13 L 15.36 22.48 L 16.01 22.48 L 16.01 21.83 L 17.3 21.19 L 17.3 19.89 L 17.95 19.89 L 17.95 19.24 L 18.6 19.24 L 18.6 18.6 L 19.24 18.6 L 19.24 17.95 L 19.89 17.95 L 20.54 16.65 L 21.83 16.65 L 21.83 16.01 L 22.48 16.01 L 22.48 15.36 L 23.13 15.36 L 23.78 14.06 L 25.07 14.06 L 25.72 12.77 L 27.01 12.77 L 27.01 12.12 L 28.31 12.12 L 28.96 10.83 L 30.25 10.83 L 30.25 10.18 L 32.19 10.18 L 32.19 9.53 L 33.49 9.53 L 33.49 8.88 L 34.78 8.88 L 34.78 8.24 L 36.73 8.24 L 36.73 7.59 L 39.32 7.59 L 39.32 6.94 L 43.2 6.94 Z M 44.5 45.79 L 45.14 45.79 L 45.14 16.01 L 43.85 16.01 L 43.85 16.65 L 41.26 16.65 L 41.26 17.3 L 38.67 17.3 L 38.67 17.95 L 37.37 17.95 L 37.37 18.6 L 35.43 18.6 L 35.43 19.24 L 34.14 19.24 L 34.14 19.89 L 31.55 20.54 L 30.9 21.83 L 29.6 21.83 L 29.6 22.48 L 28.96 22.48 L 28.96 23.13 L 28.31 23.13 L 28.31 23.78 L 27.66 23.78 L 27.66 24.42 L 27.01 24.42 L 27.01 25.07 L 26.37 25.07 L 26.37 25.72 L 25.72 25.72 L 25.72 26.37 L 25.07 26.37 L 25.07 27.01 L 24.42 27.01 L 24.42 27.66 L 23.78 27.66 L 23.78 28.31 L 23.13 28.31 L 23.13 28.96 L 21.83 29.6 L 21.83 30.9 L 20.54 31.55 L 20.54 32.84 L 19.89 32.84 L 19.89 34.14 L 18.6 34.78 L 18.6 36.73 L 17.95 36.73 L 17.95 38.02 L 17.3 38.02 L 17.3 39.96 L 16.65 39.96 L 16.65 43.2 L 16.01 43.2 L 16.01 48.38 L 15.36 48.38 L 15.36 50.97 L 16.01 50.97 L 16.01 56.8 L 16.65 56.8 L 16.65 59.39 L 17.3 59.39 L 17.3 61.33 L 17.95 61.33 L 17.95 62.63 L 18.6 62.63 L 18.6 64.57 L 19.24 64.57 L 19.24 65.86 L 20.54 66.51 L 20.54 67.81 L 21.19 67.81 L 21.19 68.45 L 22.48 69.1 L 22.48 68.45 L 23.13 68.45 L 23.13 67.81 L 23.78 67.81 L 23.78 67.16 L 24.42 67.16 L 24.42 66.51 L 25.07 66.51 L 25.07 65.86 L 25.72 65.86 L 25.72 65.22 L 26.37 65.22 L 26.37 64.57 L 27.01 64.57 L 27.01 63.92 L 27.66 63.92 L 27.66 63.27 L 28.31 63.27 L 28.31 62.63 L 28.96 62.63 L 28.96 61.98 L 29.6 61.98 L 29.6 61.33 L 30.25 61.33 L 30.25 60.68 L 30.9 60.68 L 30.9 60.04 L 31.55 60.04 L 31.55 59.39 L 32.19 59.39 L 32.19 58.74 L 32.84 58.74 L 32.84 58.09 L 33.49 58.09 L 33.49 57.45 L 34.14 57.45 L 34.14 56.8 L 34.78 56.8 L 34.78 56.15 L 35.43 56.15 L 35.43 55.5 L 36.08 55.5 L 36.08 54.86 L 36.73 54.86 L 36.73 54.21 L 37.37 54.21 L 37.37 53.56 L 38.02 53.56 L 38.02 52.91 L 38.67 52.91 L 38.67 52.27 L 39.32 52.27 L 39.32 51.62 L 39.96 51.62 L 39.96 50.97 L 40.61 50.97 L 40.61 50.32 L 41.26 50.32 L 41.26 49.68 L 41.91 49.68 L 41.91 49.03 L 42.55 49.03 L 42.55 48.38 L 43.2 48.38 L 43.2 47.73 L 44.5 47.09 Z M 54.86 46.44 L 55.5 46.44 L 55.5 47.09 L 56.15 47.09 L 56.15 47.73 L 56.8 47.73 L 56.8 48.38 L 57.45 48.38 L 57.45 49.03 L 58.09 49.03 L 58.09 49.68 L 58.74 49.68 L 59.39 50.97 L 60.68 50.97 L 60.68 51.62 L 61.33 51.62 L 61.33 52.27 L 61.98 52.27 L 61.98 52.91 L 62.63 52.91 L 62.63 53.56 L 63.27 53.56 L 63.27 54.21 L 63.92 54.21 L 63.92 54.86 L 64.57 54.86 L 64.57 55.5 L 65.22 55.5 L 65.22 56.15 L 66.51 56.8 L 66.51 58.09 L 67.16 58.09 L 67.16 58.74 L 67.81 58.74 L 68.45 60.04 L 69.75 60.04 L 69.75 60.68 L 70.4 60.68 L 70.4 61.33 L 71.04 61.33 L 71.04 61.98 L 71.69 61.98 L 71.69 62.63 L 72.34 62.63 L 72.34 63.27 L 73.63 63.92 L 73.63 65.22 L 74.28 65.22 L 74.28 65.86 L 74.93 65.86 L 74.93 66.51 L 75.58 66.51 L 75.58 67.16 L 76.22 67.16 L 76.22 67.81 L 76.87 67.81 L 76.87 68.45 L 78.17 69.1 L 78.17 67.81 L 79.46 67.16 L 79.46 65.86 L 80.11 65.86 L 80.11 64.57 L 80.76 64.57 L 80.76 63.27 L 81.4 63.27 L 81.4 61.98 L 82.05 61.98 L 82.7 58.09 L 83.35 58.09 L 83.35 54.21 L 83.99 54.21 L 83.99 45.14 L 83.35 45.14 L 83.35 41.91 L 82.7 41.91 L 82.7 39.32 L 82.05 39.32 L 82.05 37.37 L 81.4 37.37 L 81.4 36.08 L 80.76 36.08 L 80.11 33.49 L 78.81 32.84 L 78.17 30.25 L 77.52 30.25 L 77.52 29.6 L 76.87 29.6 L 76.87 28.96 L 75.58 28.31 L 75.58 27.01 L 74.93 27.01 L 74.93 26.37 L 74.28 26.37 L 74.28 25.72 L 73.63 25.72 L 73.63 25.07 L 72.99 25.07 L 72.34 23.78 L 71.04 23.78 L 71.04 23.13 L 70.4 23.13 L 69.75 21.83 L 68.45 21.83 L 67.81 20.54 L 66.51 20.54 L 66.51 19.89 L 65.22 19.89 L 65.22 19.24 L 63.92 19.24 L 63.92 18.6 L 62.63 18.6 L 62.63 17.95 L 60.68 17.95 L 60.68 17.3 L 58.09 17.3 L 58.09 16.65 L 54.86 16.65 Z M 28.96 76.87 L 29.6 76.87 L 29.6 77.52 L 30.9 77.52 L 31.55 78.81 L 32.84 78.81 L 33.49 80.11 L 34.78 80.11 L 34.78 80.76 L 37.37 81.4 L 37.37 82.05 L 39.32 82.05 L 39.32 82.7 L 41.91 82.7 L 41.91 83.35 L 45.14 83.35 L 45.14 60.04 L 44.5 60.04 L 44.5 60.68 L 43.85 60.68 L 43.85 61.33 L 43.2 61.33 L 43.2 61.98 L 42.55 61.98 L 42.55 62.63 L 41.91 62.63 L 41.91 63.27 L 41.26 63.27 L 41.26 63.92 L 40.61 63.92 L 40.61 64.57 L 39.96 64.57 L 39.96 65.22 L 39.32 65.22 L 39.32 65.86 L 38.67 65.86 L 38.67 66.51 L 38.02 66.51 L 38.02 67.16 L 37.37 67.16 L 37.37 67.81 L 36.73 67.81 L 36.73 68.45 L 36.08 68.45 L 36.08 69.1 L 35.43 69.1 L 35.43 69.75 L 34.78 69.75 L 34.78 70.4 L 34.14 70.4 L 34.14 71.04 L 33.49 71.04 L 33.49 71.69 L 32.84 71.69 L 32.84 72.34 L 32.19 72.34 L 32.19 72.99 L 31.55 72.99 L 31.55 73.63 L 30.9 73.63 L 30.9 74.28 L 30.25 74.28 L 30.25 74.93 L 28.96 75.58 Z M 70.4 76.87 L 71.04 76.87 L 71.04 75.58 L 70.4 75.58 L 70.4 74.93 L 69.75 74.93 L 69.75 74.28 L 69.1 74.28 L 69.1 73.63 L 68.45 73.63 L 68.45 72.99 L 67.81 72.99 L 67.81 72.34 L 67.16 72.34 L 67.16 71.69 L 66.51 71.69 L 66.51 71.04 L 65.86 71.04 L 65.86 70.4 L 65.22 70.4 L 65.22 69.75 L 64.57 69.75 L 64.57 69.1 L 63.92 69.1 L 63.92 68.45 L 63.27 68.45 L 63.27 67.81 L 62.63 67.81 L 62.63 67.16 L 61.98 67.16 L 61.98 66.51 L 61.33 66.51 L 61.33 65.86 L 60.04 65.22 L 60.04 63.92 L 59.39 63.92 L 59.39 63.27 L 58.74 63.27 L 58.74 62.63 L 58.09 62.63 L 58.09 61.98 L 57.45 61.98 L 56.8 60.68 L 55.5 60.68 L 55.5 60.04 L 54.86 60.04 L 54.86 83.35 L 57.45 83.35 L 57.45 82.7 L 60.04 82.7 L 60.04 82.05 L 63.92 81.4 L 63.92 80.76 L 65.22 80.76 L 65.22 80.11 L 67.81 79.46 L 68.45 78.17 L 69.75 78.17 Z"/>
</svg>
